<svg xmlns="http://www.w3.org/2000/svg" width="16" height="16" viewBox="4 4 28 28">
  <g fill="none" stroke="#000" stroke-linecap="round" stroke-linejoin="round" stroke-width="3.6">
    <path d="M7.3 14.2A11.8 11.8 0 0 1 27 9.6"/>
    <path d="m23.5 7.4 4.4 2.1-1.5 4.7"/>
    <path d="M28.7 21.8A11.8 11.8 0 0 1 9 26.4"/>
    <path d="m12.5 28.6-4.4-2.1 1.5-4.7"/>
    <path d="M13.2 13.2h9.6a2 2 0 0 1 2 2v5.1a2 2 0 0 1-2 2h-4.9l-3.6 2.5.8-2.5h-1.9a2 2 0 0 1-2-2v-5.1a2 2 0 0 1 2-2Z" stroke-width="2.5"/>
  </g>
  <circle cx="15.2" cy="17.8" r="1.15" fill="#000"/>
  <circle cx="18" cy="17.8" r="1.15" fill="#000"/>
  <circle cx="20.8" cy="17.8" r="1.15" fill="#000"/>
</svg>
